<svg xmlns="http://www.w3.org/2000/svg" viewBox="0 0 431.11 174.31"><defs><style>.cls-1{fill:none;stroke:gold;stroke-miterlimit:10;stroke-width:2px;}</style></defs><g id="Layer_2" data-name="Layer 2"><g id="Layer_1-2" data-name="Layer 1"><g id="Layer_2-2" data-name="Layer 2"><g id="Layer_1-2-2" data-name="Layer 1-2"><line class="cls-1" x1="215.55" y1="87.16" x2="215.55" y2="87.16"/><line class="cls-1" x1="215.55" y1="87.16" x2="215.55" y2="87.16"/><line class="cls-1" x1="215.55" y1="87.16" x2="431.11" y2="87.16"/><line class="cls-1" x1="215.55" y1="87.16" x2="215.55" y2="87.16"/><line class="cls-1" x1="215.55" y1="87.16" x2="215.55" y2="87.16"/><line class="cls-1" y1="87.16" x2="215.55" y2="87.16"/><line class="cls-1" x1="215.55" y1="87.16" x2="215.55" y2="87.16"/><line class="cls-1" x1="215.55" y1="87.16" x2="215.55" y2="87.16"/><line class="cls-1" x1="215.55" y1="87.16" x2="215.55" y2="87.16"/><line class="cls-1" x1="215.55" y1="87.16" x2="215.55" y2="87.16"/><line class="cls-1" x1="215.55" y1="87.16" x2="215.55" y2="87.16"/><line class="cls-1" x1="215.55" y1="87.16" x2="215.55" y2="87.16"/><line class="cls-1" x1="215.55" y1="87.16" x2="215.55" y2="87.16"/><line class="cls-1" x1="215.55" y1="87.16" x2="215.55" y2="87.16"/><line class="cls-1" x1="215.55" y1="87.16" x2="215.55" y2="87.16"/><line class="cls-1" x1="427.07" y1="68.65" x2="215.55" y2="87.16"/><line class="cls-1" x1="215.55" y1="87.16" x2="215.55" y2="87.16"/><line class="cls-1" x1="215.55" y1="87.16" x2="215.55" y2="87.16"/><line class="cls-1" x1="215.55" y1="87.16" x2="4.86" y2="105.59"/><line class="cls-1" x1="215.55" y1="87.16" x2="215.55" y2="87.16"/><line class="cls-1" x1="215.55" y1="87.16" x2="215.55" y2="87.16"/><line class="cls-1" x1="215.55" y1="87.16" x2="215.55" y2="87.16"/><line class="cls-1" x1="215.55" y1="87.16" x2="215.55" y2="87.16"/><line class="cls-1" x1="215.55" y1="87.16" x2="215.55" y2="87.16"/><line class="cls-1" x1="215.55" y1="87.16" x2="215.55" y2="87.16"/><line class="cls-1" x1="215.55" y1="87.16" x2="215.55" y2="87.16"/><line class="cls-1" x1="215.55" y1="87.16" x2="215.55" y2="87.16"/><line class="cls-1" x1="215.55" y1="87.16" x2="215.55" y2="87.16"/><line class="cls-1" x1="215.55" y1="87.16" x2="215.55" y2="87.16"/><line class="cls-1" x1="215.55" y1="87.16" x2="215.55" y2="87.16"/><line class="cls-1" x1="413.86" y1="52.19" x2="215.55" y2="87.16"/><line class="cls-1" x1="215.55" y1="87.16" x2="215.55" y2="87.16"/><line class="cls-1" x1="215.55" y1="87.16" x2="215.55" y2="87.16"/><line class="cls-1" x1="215.55" y1="87.16" x2="215.55" y2="87.16"/><line class="cls-1" x1="215.55" y1="87.16" x2="215.55" y2="87.16"/><line class="cls-1" x1="215.55" y1="87.16" x2="215.55" y2="87.16"/><line class="cls-1" x1="17.98" y1="122" x2="215.55" y2="87.16"/><line class="cls-1" x1="215.55" y1="87.16" x2="215.55" y2="87.16"/><line class="cls-1" x1="215.55" y1="87.16" x2="215.55" y2="87.16"/><line class="cls-1" x1="215.55" y1="87.16" x2="215.55" y2="87.16"/><line class="cls-1" x1="215.55" y1="87.16" x2="215.55" y2="87.16"/><line class="cls-1" x1="215.55" y1="87.16" x2="215.55" y2="87.16"/><line class="cls-1" x1="215.55" y1="87.16" x2="215.55" y2="87.16"/><line class="cls-1" x1="215.55" y1="87.16" x2="215.55" y2="87.16"/><line class="cls-1" x1="215.55" y1="87.16" x2="215.55" y2="87.16"/><line class="cls-1" x1="215.55" y1="87.16" x2="215.55" y2="87.16"/><line class="cls-1" x1="215.55" y1="87.16" x2="215.55" y2="87.16"/><line class="cls-1" x1="215.55" y1="87.16" x2="215.55" y2="87.16"/><line class="cls-1" x1="215.55" y1="87.16" x2="215.55" y2="87.16"/><line class="cls-1" x1="215.55" y1="87.16" x2="215.55" y2="87.16"/><line class="cls-1" x1="215.55" y1="87.16" x2="215.55" y2="87.16"/><line class="cls-1" x1="215.55" y1="87.16" x2="215.55" y2="87.16"/><line class="cls-1" x1="395.77" y1="38.87" x2="215.55" y2="87.16"/><line class="cls-1" x1="215.55" y1="87.16" x2="215.55" y2="87.16"/><line class="cls-1" x1="215.55" y1="87.16" x2="215.55" y2="87.16"/><line class="cls-1" x1="215.55" y1="87.16" x2="215.55" y2="87.16"/><line class="cls-1" x1="215.55" y1="87.16" x2="215.55" y2="87.16"/><line class="cls-1" x1="35.93" y1="135.29" x2="215.55" y2="87.16"/><line class="cls-1" x1="215.55" y1="87.16" x2="215.55" y2="87.16"/><line class="cls-1" x1="215.55" y1="87.16" x2="215.55" y2="87.16"/><line class="cls-1" x1="215.55" y1="87.16" x2="215.55" y2="87.16"/><line class="cls-1" x1="215.55" y1="87.16" x2="215.55" y2="87.16"/><line class="cls-1" x1="215.55" y1="87.16" x2="215.55" y2="87.16"/><line class="cls-1" x1="215.55" y1="87.16" x2="215.55" y2="87.16"/><line class="cls-1" x1="215.55" y1="87.16" x2="215.55" y2="87.16"/><line class="cls-1" x1="215.55" y1="87.16" x2="215.55" y2="87.16"/><line class="cls-1" x1="215.55" y1="87.16" x2="215.55" y2="87.16"/><line class="cls-1" x1="215.55" y1="87.16" x2="215.55" y2="87.16"/><line class="cls-1" x1="215.55" y1="87.16" x2="215.55" y2="87.16"/><line class="cls-1" x1="215.55" y1="87.16" x2="215.55" y2="87.16"/><line class="cls-1" x1="215.55" y1="87.16" x2="215.55" y2="87.16"/><line class="cls-1" x1="215.55" y1="87.16" x2="215.55" y2="87.16"/><line class="cls-1" x1="215.55" y1="87.16" x2="215.55" y2="87.16"/><line class="cls-1" x1="215.55" y1="87.16" x2="215.55" y2="87.16"/><line class="cls-1" x1="215.55" y1="87.16" x2="215.55" y2="87.16"/><line class="cls-1" x1="215.55" y1="87.16" x2="215.55" y2="87.16"/><line class="cls-1" x1="215.55" y1="87.16" x2="215.55" y2="87.16"/><line class="cls-1" x1="215.55" y1="87.16" x2="215.55" y2="87.16"/><line class="cls-1" x1="215.55" y1="87.16" x2="215.55" y2="87.16"/><line class="cls-1" x1="215.55" y1="87.16" x2="215.55" y2="87.16"/><line class="cls-1" x1="215.55" y1="87.16" x2="215.55" y2="87.16"/><line class="cls-1" x1="215.55" y1="87.16" x2="215.55" y2="87.16"/><line class="cls-1" x1="215.55" y1="87.16" x2="215.55" y2="87.16"/><line class="cls-1" x1="376.15" y1="28.71" x2="215.55" y2="87.16"/><line class="cls-1" x1="55.44" y1="145.44" x2="215.55" y2="87.16"/><line class="cls-1" x1="215.55" y1="87.16" x2="215.55" y2="87.16"/><line class="cls-1" x1="215.55" y1="87.16" x2="215.55" y2="87.16"/><line class="cls-1" x1="215.55" y1="87.16" x2="215.55" y2="87.16"/><line class="cls-1" x1="215.55" y1="87.16" x2="215.55" y2="87.16"/><line class="cls-1" x1="215.55" y1="87.16" x2="215.55" y2="87.16"/><line class="cls-1" x1="215.55" y1="87.16" x2="215.55" y2="87.16"/><line class="cls-1" x1="215.55" y1="87.16" x2="215.55" y2="87.16"/><line class="cls-1" x1="215.55" y1="87.16" x2="215.55" y2="87.16"/><line class="cls-1" x1="215.55" y1="87.16" x2="215.55" y2="87.16"/><line class="cls-1" x1="215.55" y1="87.16" x2="215.55" y2="87.16"/><line class="cls-1" x1="215.55" y1="87.16" x2="215.55" y2="87.16"/><line class="cls-1" x1="215.55" y1="87.16" x2="215.55" y2="87.16"/><line class="cls-1" x1="215.55" y1="87.16" x2="215.55" y2="87.16"/><line class="cls-1" x1="357.04" y1="21.18" x2="215.55" y2="87.16"/><line class="cls-1" x1="215.55" y1="87.16" x2="215.55" y2="87.16"/><line class="cls-1" x1="215.55" y1="87.16" x2="215.55" y2="87.16"/><line class="cls-1" x1="215.55" y1="87.16" x2="215.55" y2="87.16"/><line class="cls-1" x1="215.55" y1="87.16" x2="215.55" y2="87.16"/><line class="cls-1" x1="215.55" y1="87.16" x2="215.55" y2="87.16"/><line class="cls-1" x1="215.55" y1="87.16" x2="215.55" y2="87.16"/><line class="cls-1" x1="215.55" y1="87.16" x2="215.55" y2="87.16"/><line class="cls-1" x1="215.55" y1="87.16" x2="215.55" y2="87.16"/><line class="cls-1" x1="215.55" y1="87.16" x2="215.55" y2="87.16"/><line class="cls-1" x1="215.55" y1="87.16" x2="215.55" y2="87.16"/><line class="cls-1" x1="215.55" y1="87.16" x2="215.55" y2="87.16"/><line class="cls-1" x1="215.55" y1="87.16" x2="215.55" y2="87.16"/><line class="cls-1" x1="74.43" y1="152.97" x2="215.55" y2="87.16"/><line class="cls-1" x1="215.55" y1="87.16" x2="215.55" y2="87.16"/><line class="cls-1" x1="215.55" y1="87.16" x2="215.55" y2="87.16"/><line class="cls-1" x1="215.55" y1="87.16" x2="215.55" y2="87.16"/><line class="cls-1" x1="215.55" y1="87.16" x2="215.55" y2="87.16"/><line class="cls-1" x1="215.55" y1="87.16" x2="215.55" y2="87.16"/><line class="cls-1" x1="215.55" y1="87.16" x2="215.55" y2="87.16"/><line class="cls-1" x1="215.55" y1="87.16" x2="215.55" y2="87.16"/><line class="cls-1" x1="215.55" y1="87.16" x2="215.55" y2="87.16"/><line class="cls-1" x1="215.55" y1="87.16" x2="215.55" y2="87.16"/><line class="cls-1" x1="215.55" y1="87.16" x2="215.55" y2="87.16"/><line class="cls-1" x1="215.55" y1="87.16" x2="215.55" y2="87.16"/><line class="cls-1" x1="215.55" y1="87.16" x2="215.55" y2="87.16"/><line class="cls-1" x1="215.55" y1="87.16" x2="215.55" y2="87.16"/><line class="cls-1" x1="215.55" y1="87.16" x2="215.55" y2="87.16"/><line class="cls-1" x1="215.55" y1="87.16" x2="215.55" y2="87.16"/><line class="cls-1" x1="339.4" y1="15.66" x2="215.55" y2="87.16"/><line class="cls-1" x1="215.55" y1="87.16" x2="215.55" y2="87.16"/><line class="cls-1" x1="215.55" y1="87.16" x2="215.55" y2="87.16"/><line class="cls-1" x1="215.55" y1="87.16" x2="215.55" y2="87.16"/><line class="cls-1" x1="91.99" y1="158.5" x2="215.55" y2="87.16"/><line class="cls-1" x1="215.55" y1="87.16" x2="215.55" y2="87.16"/><line class="cls-1" x1="215.55" y1="87.16" x2="215.55" y2="87.16"/><line class="cls-1" x1="215.55" y1="87.16" x2="215.55" y2="87.16"/><line class="cls-1" x1="215.55" y1="87.16" x2="215.55" y2="87.16"/><line class="cls-1" x1="215.55" y1="87.16" x2="215.55" y2="87.16"/><line class="cls-1" x1="215.55" y1="87.16" x2="215.55" y2="87.16"/><line class="cls-1" x1="215.55" y1="87.16" x2="215.55" y2="87.16"/><line class="cls-1" x1="215.55" y1="87.16" x2="215.55" y2="87.16"/><line class="cls-1" x1="323.5" y1="11.58" x2="215.55" y2="87.16"/><line class="cls-1" x1="215.55" y1="87.16" x2="215.55" y2="87.16"/><line class="cls-1" x1="215.55" y1="87.16" x2="215.55" y2="87.16"/><line class="cls-1" x1="215.55" y1="87.16" x2="215.55" y2="87.16"/><line class="cls-1" x1="215.55" y1="87.16" x2="215.55" y2="87.16"/><line class="cls-1" x1="215.55" y1="87.16" x2="215.55" y2="87.16"/><line class="cls-1" x1="215.55" y1="87.16" x2="215.55" y2="87.16"/><line class="cls-1" x1="215.55" y1="87.16" x2="215.55" y2="87.16"/><line class="cls-1" x1="215.55" y1="87.16" x2="215.55" y2="87.16"/><line class="cls-1" x1="107.83" y1="162.59" x2="215.55" y2="87.16"/><line class="cls-1" x1="215.55" y1="87.16" x2="215.55" y2="87.16"/><line class="cls-1" x1="215.55" y1="87.16" x2="215.55" y2="87.16"/><line class="cls-1" x1="122.04" y1="165.63" x2="215.55" y2="87.16"/><line class="cls-1" x1="215.55" y1="87.16" x2="215.55" y2="87.16"/><line class="cls-1" x1="215.55" y1="87.16" x2="215.55" y2="87.16"/><line class="cls-1" x1="215.55" y1="87.16" x2="215.55" y2="87.16"/><line class="cls-1" x1="215.55" y1="87.16" x2="215.55" y2="87.16"/><line class="cls-1" x1="309.24" y1="8.55" x2="215.55" y2="87.16"/><line class="cls-1" x1="215.55" y1="87.16" x2="215.55" y2="87.16"/><line class="cls-1" x1="215.55" y1="87.16" x2="215.55" y2="87.16"/><line class="cls-1" x1="215.55" y1="87.16" x2="215.55" y2="87.16"/><line class="cls-1" x1="215.55" y1="87.16" x2="215.55" y2="87.16"/><line class="cls-1" x1="215.55" y1="87.16" x2="215.55" y2="87.16"/><line class="cls-1" x1="215.55" y1="87.16" x2="215.55" y2="87.16"/><line class="cls-1" x1="134.8" y1="167.91" x2="215.55" y2="87.16"/><line class="cls-1" x1="215.55" y1="87.16" x2="215.55" y2="87.16"/><line class="cls-1" x1="215.55" y1="87.16" x2="215.55" y2="87.16"/><line class="cls-1" x1="215.55" y1="87.16" x2="215.55" y2="87.16"/><line class="cls-1" x1="215.55" y1="87.16" x2="215.55" y2="87.16"/><line class="cls-1" x1="215.55" y1="87.16" x2="215.55" y2="87.16"/><line class="cls-1" x1="215.55" y1="87.16" x2="215.55" y2="87.16"/><line class="cls-1" x1="296.43" y1="6.28" x2="215.55" y2="87.16"/><line class="cls-1" x1="215.55" y1="87.16" x2="215.55" y2="87.16"/><line class="cls-1" x1="215.55" y1="87.16" x2="215.55" y2="87.16"/><line class="cls-1" x1="215.55" y1="87.16" x2="215.55" y2="87.16"/><line class="cls-1" x1="146.33" y1="169.65" x2="215.55" y2="87.16"/><line class="cls-1" x1="215.55" y1="87.16" x2="215.55" y2="87.16"/><line class="cls-1" x1="215.55" y1="87.16" x2="215.55" y2="87.16"/><line class="cls-1" x1="215.55" y1="87.16" x2="215.55" y2="87.16"/><line class="cls-1" x1="284.86" y1="4.56" x2="215.55" y2="87.16"/><line class="cls-1" x1="215.55" y1="87.16" x2="215.55" y2="87.16"/><line class="cls-1" x1="215.55" y1="87.16" x2="215.55" y2="87.16"/><line class="cls-1" x1="215.55" y1="87.16" x2="215.55" y2="87.16"/><line class="cls-1" x1="215.55" y1="87.16" x2="215.55" y2="87.16"/><line class="cls-1" x1="156.86" y1="170.98" x2="215.55" y2="87.16"/><line class="cls-1" x1="215.55" y1="87.16" x2="215.55" y2="87.16"/><line class="cls-1" x1="215.55" y1="87.16" x2="215.55" y2="87.16"/><line class="cls-1" x1="215.55" y1="87.16" x2="215.55" y2="87.16"/><line class="cls-1" x1="215.55" y1="87.16" x2="215.55" y2="87.16"/><line class="cls-1" x1="215.55" y1="87.16" x2="215.55" y2="87.16"/><line class="cls-1" x1="274.31" y1="3.25" x2="215.55" y2="87.16"/><line class="cls-1" x1="215.55" y1="87.16" x2="215.55" y2="87.16"/><line class="cls-1" x1="215.55" y1="87.16" x2="215.55" y2="87.16"/><line class="cls-1" x1="215.55" y1="87.16" x2="215.55" y2="87.16"/><line class="cls-1" x1="215.55" y1="87.16" x2="215.55" y2="87.16"/><line class="cls-1" x1="215.55" y1="87.16" x2="215.55" y2="87.16"/><line class="cls-1" x1="215.55" y1="87.16" x2="215.55" y2="87.16"/><line class="cls-1" x1="215.55" y1="87.16" x2="215.55" y2="87.16"/><line class="cls-1" x1="215.55" y1="87.16" x2="215.55" y2="87.16"/><line class="cls-1" x1="215.55" y1="87.16" x2="215.55" y2="87.16"/><line class="cls-1" x1="215.55" y1="87.16" x2="215.55" y2="87.16"/><line class="cls-1" x1="166.58" y1="171.99" x2="215.55" y2="87.16"/><line class="cls-1" x1="215.55" y1="87.16" x2="215.55" y2="87.16"/><line class="cls-1" x1="215.55" y1="87.16" x2="215.55" y2="87.16"/><line class="cls-1" x1="264.58" y1="2.25" x2="215.55" y2="87.16"/><line class="cls-1" x1="215.55" y1="87.16" x2="215.55" y2="87.16"/><line class="cls-1" x1="215.55" y1="87.16" x2="215.55" y2="87.16"/><line class="cls-1" x1="215.55" y1="87.16" x2="215.55" y2="87.16"/><line class="cls-1" x1="215.55" y1="87.16" x2="215.55" y2="87.16"/><line class="cls-1" x1="215.55" y1="87.16" x2="215.55" y2="87.16"/><line class="cls-1" x1="215.55" y1="87.16" x2="215.55" y2="87.16"/><line class="cls-1" x1="215.55" y1="87.16" x2="215.55" y2="87.16"/><line class="cls-1" x1="175.64" y1="172.76" x2="215.55" y2="87.16"/><line class="cls-1" x1="215.55" y1="87.16" x2="215.55" y2="87.16"/><line class="cls-1" x1="215.55" y1="87.16" x2="215.55" y2="87.16"/><line class="cls-1" x1="215.55" y1="87.16" x2="215.55" y2="87.16"/><line class="cls-1" x1="215.55" y1="87.16" x2="215.55" y2="87.16"/><line class="cls-1" x1="215.55" y1="87.16" x2="215.55" y2="87.16"/><line class="cls-1" x1="215.55" y1="87.16" x2="215.55" y2="87.16"/><line class="cls-1" x1="215.55" y1="87.16" x2="215.55" y2="87.16"/><line class="cls-1" x1="215.55" y1="87.16" x2="215.55" y2="87.16"/><line class="cls-1" x1="215.55" y1="87.16" x2="215.55" y2="87.16"/><line class="cls-1" x1="215.55" y1="87.16" x2="215.55" y2="87.16"/><line class="cls-1" x1="215.55" y1="87.16" x2="215.55" y2="87.16"/><line class="cls-1" x1="215.55" y1="87.16" x2="215.55" y2="87.16"/><line class="cls-1" x1="215.55" y1="87.16" x2="215.55" y2="87.16"/><line class="cls-1" x1="255.5" y1="1.49" x2="215.55" y2="87.16"/><line class="cls-1" x1="215.55" y1="87.16" x2="215.55" y2="87.16"/><line class="cls-1" x1="215.55" y1="87.16" x2="215.55" y2="87.16"/><line class="cls-1" x1="215.55" y1="87.16" x2="215.55" y2="87.16"/><line class="cls-1" x1="215.55" y1="87.16" x2="215.55" y2="87.16"/><line class="cls-1" x1="215.55" y1="87.16" x2="215.55" y2="87.16"/><line class="cls-1" x1="215.55" y1="87.16" x2="215.55" y2="87.16"/><line class="cls-1" x1="215.55" y1="87.16" x2="215.55" y2="87.16"/><line class="cls-1" x1="215.55" y1="87.16" x2="215.55" y2="87.16"/><line class="cls-1" x1="215.55" y1="87.16" x2="215.55" y2="87.16"/><line class="cls-1" x1="215.55" y1="87.16" x2="215.55" y2="87.16"/><line class="cls-1" x1="215.55" y1="87.16" x2="215.55" y2="87.16"/><line class="cls-1" x1="215.55" y1="87.16" x2="215.55" y2="87.16"/><line class="cls-1" x1="215.55" y1="87.16" x2="215.55" y2="87.16"/><line class="cls-1" x1="215.55" y1="87.16" x2="215.55" y2="87.16"/><line class="cls-1" x1="246.94" y1="0.93" x2="215.55" y2="87.16"/><line class="cls-1" x1="215.55" y1="87.16" x2="215.55" y2="87.16"/><line class="cls-1" x1="215.55" y1="87.16" x2="215.55" y2="87.16"/><line class="cls-1" x1="215.55" y1="87.16" x2="215.55" y2="87.16"/><line class="cls-1" x1="184.19" y1="173.34" x2="215.55" y2="87.16"/><line class="cls-1" x1="215.55" y1="87.16" x2="215.55" y2="87.16"/><line class="cls-1" x1="215.55" y1="87.16" x2="215.55" y2="87.16"/><line class="cls-1" x1="215.55" y1="87.16" x2="215.55" y2="87.16"/><line class="cls-1" x1="215.55" y1="87.16" x2="215.55" y2="87.16"/><line class="cls-1" x1="192.35" y1="173.76" x2="215.55" y2="87.16"/><line class="cls-1" x1="238.77" y1="0.52" x2="215.55" y2="87.16"/><line class="cls-1" x1="215.55" y1="87.16" x2="215.55" y2="87.16"/><line class="cls-1" x1="215.55" y1="87.16" x2="215.55" y2="87.16"/><line class="cls-1" x1="215.55" y1="87.16" x2="215.55" y2="87.16"/><line class="cls-1" x1="215.55" y1="87.16" x2="215.55" y2="87.16"/><line class="cls-1" x1="215.55" y1="87.16" x2="215.55" y2="87.16"/><line class="cls-1" x1="215.55" y1="87.16" x2="215.55" y2="87.16"/><line class="cls-1" x1="215.55" y1="87.16" x2="215.55" y2="87.16"/><line class="cls-1" x1="215.55" y1="87.16" x2="215.55" y2="87.16"/><line class="cls-1" x1="215.55" y1="87.16" x2="215.55" y2="87.16"/><line class="cls-1" x1="215.55" y1="87.16" x2="215.55" y2="87.16"/><line class="cls-1" x1="215.55" y1="87.16" x2="215.55" y2="87.16"/><line class="cls-1" x1="215.55" y1="87.16" x2="215.55" y2="87.16"/><line class="cls-1" x1="215.55" y1="87.16" x2="215.55" y2="87.16"/><line class="cls-1" x1="215.55" y1="87.16" x2="215.55" y2="87.16"/><line class="cls-1" x1="215.55" y1="87.16" x2="215.55" y2="87.16"/><line class="cls-1" x1="200.23" y1="174.05" x2="215.55" y2="87.16"/><line class="cls-1" x1="215.55" y1="87.16" x2="215.55" y2="87.16"/><line class="cls-1" x1="215.55" y1="87.16" x2="215.55" y2="87.16"/><line class="cls-1" x1="215.55" y1="87.16" x2="215.55" y2="87.16"/><line class="cls-1" x1="215.55" y1="87.16" x2="215.55" y2="87.16"/><line class="cls-1" x1="215.55" y1="87.16" x2="215.55" y2="87.16"/><line class="cls-1" x1="215.55" y1="87.16" x2="215.55" y2="87.16"/><line class="cls-1" x1="215.55" y1="87.16" x2="215.55" y2="87.16"/><line class="cls-1" x1="215.55" y1="87.16" x2="215.55" y2="87.16"/><line class="cls-1" x1="230.88" y1="0.24" x2="215.55" y2="87.16"/><line class="cls-1" x1="215.55" y1="87.16" x2="215.55" y2="87.16"/><line class="cls-1" x1="215.55" y1="87.16" x2="215.55" y2="87.16"/><line class="cls-1" x1="215.55" y1="87.16" x2="215.55" y2="87.16"/><line class="cls-1" x1="215.55" y1="87.16" x2="215.55" y2="87.16"/><line class="cls-1" x1="215.55" y1="87.16" x2="215.55" y2="87.16"/><line class="cls-1" x1="215.55" y1="87.16" x2="215.55" y2="87.16"/><line class="cls-1" x1="215.55" y1="87.16" x2="215.55" y2="87.16"/><line class="cls-1" x1="215.55" y1="87.16" x2="215.55" y2="87.16"/><line class="cls-1" x1="215.55" y1="87.16" x2="215.55" y2="87.16"/><line class="cls-1" x1="215.55" y1="87.16" x2="215.55" y2="87.16"/><line class="cls-1" x1="215.55" y1="87.16" x2="215.55" y2="87.16"/><line class="cls-1" x1="215.55" y1="87.16" x2="215.55" y2="87.16"/><line class="cls-1" x1="215.55" y1="87.16" x2="215.55" y2="87.16"/><line class="cls-1" x1="215.55" y1="87.16" x2="215.55" y2="87.16"/><line class="cls-1" x1="215.55" y1="87.16" x2="215.55" y2="87.16"/><line class="cls-1" x1="215.55" y1="87.16" x2="215.55" y2="87.16"/><line class="cls-1" x1="215.55" y1="87.16" x2="215.55" y2="87.16"/><line class="cls-1" x1="215.55" y1="87.16" x2="215.55" y2="87.16"/><line class="cls-1" x1="215.55" y1="87.16" x2="215.55" y2="87.16"/><line class="cls-1" x1="223.17" y1="0.09" x2="215.55" y2="87.16"/><line class="cls-1" x1="215.55" y1="87.16" x2="215.55" y2="87.16"/><line class="cls-1" x1="207.94" y1="174.22" x2="215.55" y2="87.16"/><line class="cls-1" x1="215.55" y1="87.16" x2="215.55" y2="87.16"/><line class="cls-1" x1="215.55" y1="87.16" x2="215.55" y2="87.16"/><line class="cls-1" x1="215.55" y1="87.16" x2="215.55" y2="87.16"/><line class="cls-1" x1="215.55" y1="87.16" x2="215.55" y2="87.16"/><line class="cls-1" x1="215.55" y1="87.16" x2="215.55" y2="87.16"/><line class="cls-1" x1="215.55" y1="87.16" x2="215.55" y2="87.16"/><line class="cls-1" x1="215.55" y1="87.16" x2="215.55" y2="87.16"/><line class="cls-1" x1="215.55" y1="87.16" x2="215.55" y2="87.16"/><line class="cls-1" x1="215.55" y1="87.16" x2="215.55" y2="87.16"/><line class="cls-1" x1="215.55" y1="87.16" x2="215.55" y2="87.16"/><line class="cls-1" x1="215.55" y1="87.16" x2="215.55" y2="87.16"/><line class="cls-1" x1="215.55" y1="87.16" x2="215.55" y2="87.16"/><line class="cls-1" x1="215.55" y1="87.16" x2="215.55" y2="87.16"/><line class="cls-1" x1="215.55" y1="174.28" x2="215.55" y2="87.16"/><line class="cls-1" x1="215.55" y1="87.16" x2="215.55" y2="87.16"/><line class="cls-1" x1="215.55" y1="0.04" x2="215.55" y2="87.16"/><line class="cls-1" x1="215.55" y1="87.16" x2="215.55" y2="87.16"/><line class="cls-1" x1="215.55" y1="87.16" x2="215.55" y2="87.16"/><line class="cls-1" x1="215.55" y1="87.16" x2="215.55" y2="87.16"/><line class="cls-1" x1="215.55" y1="87.16" x2="215.55" y2="87.16"/><line class="cls-1" x1="223.17" y1="174.23" x2="215.55" y2="87.16"/><line class="cls-1" x1="215.55" y1="87.16" x2="215.55" y2="87.16"/><line class="cls-1" x1="215.55" y1="87.16" x2="215.55" y2="87.16"/><line class="cls-1" x1="215.55" y1="87.16" x2="215.55" y2="87.16"/><line class="cls-1" x1="215.55" y1="87.16" x2="215.55" y2="87.16"/><line class="cls-1" x1="207.94" y1="0.1" x2="215.55" y2="87.16"/><line class="cls-1" x1="215.55" y1="87.16" x2="215.55" y2="87.16"/><line class="cls-1" x1="215.55" y1="87.16" x2="215.55" y2="87.16"/><line class="cls-1" x1="215.55" y1="87.16" x2="215.55" y2="87.16"/><line class="cls-1" x1="215.55" y1="87.16" x2="215.55" y2="87.16"/><line class="cls-1" x1="215.55" y1="87.16" x2="215.55" y2="87.16"/><line class="cls-1" x1="215.55" y1="87.16" x2="215.55" y2="87.16"/><line class="cls-1" x1="215.55" y1="87.16" x2="215.55" y2="87.16"/><line class="cls-1" x1="215.55" y1="87.16" x2="215.55" y2="87.16"/><line class="cls-1" x1="215.55" y1="87.16" x2="215.55" y2="87.16"/><line class="cls-1" x1="215.55" y1="87.16" x2="215.55" y2="87.16"/><line class="cls-1" x1="215.55" y1="87.16" x2="215.55" y2="87.16"/><line class="cls-1" x1="215.55" y1="87.16" x2="215.55" y2="87.16"/><line class="cls-1" x1="215.55" y1="87.16" x2="215.55" y2="87.16"/><line class="cls-1" x1="215.55" y1="87.16" x2="215.55" y2="87.16"/><line class="cls-1" x1="215.55" y1="87.16" x2="215.55" y2="87.16"/><line class="cls-1" x1="215.55" y1="87.16" x2="215.55" y2="87.16"/><line class="cls-1" x1="215.55" y1="87.16" x2="215.55" y2="87.16"/><line class="cls-1" x1="215.55" y1="87.16" x2="215.55" y2="87.16"/><line class="cls-1" x1="215.55" y1="87.16" x2="215.55" y2="87.16"/><line class="cls-1" x1="215.55" y1="87.16" x2="215.55" y2="87.16"/><line class="cls-1" x1="215.55" y1="87.16" x2="215.55" y2="87.16"/><line class="cls-1" x1="215.55" y1="87.16" x2="215.55" y2="87.16"/><line class="cls-1" x1="215.55" y1="87.16" x2="215.55" y2="87.16"/><line class="cls-1" x1="215.55" y1="87.16" x2="215.55" y2="87.16"/><line class="cls-1" x1="215.55" y1="87.16" x2="215.55" y2="87.16"/><line class="cls-1" x1="200.23" y1="0.27" x2="215.55" y2="87.16"/><line class="cls-1" x1="230.88" y1="174.08" x2="215.55" y2="87.16"/><line class="cls-1" x1="215.55" y1="87.16" x2="215.55" y2="87.16"/><line class="cls-1" x1="215.55" y1="87.16" x2="215.55" y2="87.16"/><line class="cls-1" x1="215.55" y1="87.16" x2="215.55" y2="87.16"/><line class="cls-1" x1="215.55" y1="87.16" x2="215.55" y2="87.16"/><line class="cls-1" x1="215.55" y1="87.16" x2="215.55" y2="87.16"/><line class="cls-1" x1="215.55" y1="87.16" x2="215.55" y2="87.16"/><line class="cls-1" x1="215.55" y1="87.16" x2="215.55" y2="87.16"/><line class="cls-1" x1="215.55" y1="87.16" x2="215.55" y2="87.16"/><line class="cls-1" x1="215.55" y1="87.16" x2="215.55" y2="87.16"/><line class="cls-1" x1="215.55" y1="87.16" x2="215.55" y2="87.16"/><line class="cls-1" x1="215.55" y1="87.16" x2="215.55" y2="87.16"/><line class="cls-1" x1="215.55" y1="87.16" x2="215.55" y2="87.16"/><line class="cls-1" x1="192.35" y1="0.56" x2="215.55" y2="87.16"/><line class="cls-1" x1="215.55" y1="87.16" x2="215.55" y2="87.16"/><line class="cls-1" x1="215.55" y1="87.16" x2="215.55" y2="87.16"/><line class="cls-1" x1="215.55" y1="87.16" x2="215.55" y2="87.16"/><line class="cls-1" x1="215.55" y1="87.16" x2="215.55" y2="87.16"/><line class="cls-1" x1="215.55" y1="87.16" x2="215.55" y2="87.16"/><line class="cls-1" x1="238.77" y1="173.8" x2="215.55" y2="87.16"/><line class="cls-1" x1="215.55" y1="87.16" x2="215.55" y2="87.16"/><line class="cls-1" x1="215.55" y1="87.16" x2="215.55" y2="87.16"/><line class="cls-1" x1="215.55" y1="87.16" x2="215.55" y2="87.16"/><line class="cls-1" x1="215.55" y1="87.16" x2="215.55" y2="87.16"/><line class="cls-1" x1="215.55" y1="87.16" x2="215.55" y2="87.16"/><line class="cls-1" x1="215.55" y1="87.16" x2="215.55" y2="87.16"/><line class="cls-1" x1="215.55" y1="87.16" x2="215.55" y2="87.16"/><line class="cls-1" x1="215.55" y1="87.16" x2="215.55" y2="87.16"/><line class="cls-1" x1="215.55" y1="87.16" x2="215.55" y2="87.16"/><line class="cls-1" x1="215.55" y1="87.16" x2="215.55" y2="87.16"/><line class="cls-1" x1="246.94" y1="173.39" x2="215.55" y2="87.16"/><line class="cls-1" x1="215.55" y1="87.16" x2="215.55" y2="87.16"/><line class="cls-1" x1="215.55" y1="87.16" x2="215.55" y2="87.16"/><line class="cls-1" x1="215.55" y1="87.16" x2="215.55" y2="87.16"/><line class="cls-1" x1="215.55" y1="87.16" x2="215.55" y2="87.16"/><line class="cls-1" x1="215.55" y1="87.16" x2="215.55" y2="87.16"/><line class="cls-1" x1="184.19" y1="0.98" x2="215.55" y2="87.16"/><line class="cls-1" x1="215.55" y1="87.16" x2="215.55" y2="87.16"/><line class="cls-1" x1="215.55" y1="87.16" x2="215.55" y2="87.16"/><line class="cls-1" x1="215.55" y1="87.16" x2="215.55" y2="87.16"/><line class="cls-1" x1="215.55" y1="87.16" x2="215.55" y2="87.16"/><line class="cls-1" x1="215.55" y1="87.16" x2="215.55" y2="87.16"/><line class="cls-1" x1="175.64" y1="1.56" x2="215.55" y2="87.16"/><line class="cls-1" x1="215.55" y1="87.16" x2="215.55" y2="87.16"/><line class="cls-1" x1="215.55" y1="87.16" x2="215.55" y2="87.16"/><line class="cls-1" x1="215.55" y1="87.16" x2="215.55" y2="87.16"/><line class="cls-1" x1="215.55" y1="87.16" x2="215.55" y2="87.16"/><line class="cls-1" x1="215.55" y1="87.16" x2="215.55" y2="87.16"/><line class="cls-1" x1="215.55" y1="87.16" x2="215.55" y2="87.16"/><line class="cls-1" x1="215.55" y1="87.16" x2="215.55" y2="87.16"/><line class="cls-1" x1="215.55" y1="87.16" x2="215.55" y2="87.16"/><line class="cls-1" x1="215.55" y1="87.16" x2="215.55" y2="87.16"/><line class="cls-1" x1="215.55" y1="87.16" x2="215.55" y2="87.16"/><line class="cls-1" x1="215.55" y1="87.16" x2="215.55" y2="87.16"/><line class="cls-1" x1="215.55" y1="87.16" x2="215.55" y2="87.16"/><line class="cls-1" x1="215.55" y1="87.16" x2="215.55" y2="87.16"/><line class="cls-1" x1="215.55" y1="87.16" x2="215.55" y2="87.16"/><line class="cls-1" x1="215.55" y1="87.16" x2="215.55" y2="87.16"/><line class="cls-1" x1="215.55" y1="87.16" x2="215.55" y2="87.16"/><line class="cls-1" x1="215.55" y1="87.16" x2="215.55" y2="87.16"/><line class="cls-1" x1="215.55" y1="87.16" x2="215.55" y2="87.16"/><line class="cls-1" x1="215.55" y1="87.16" x2="215.55" y2="87.16"/><line class="cls-1" x1="215.55" y1="87.16" x2="215.55" y2="87.16"/><line class="cls-1" x1="215.55" y1="87.16" x2="215.55" y2="87.16"/><line class="cls-1" x1="255.5" y1="172.83" x2="215.55" y2="87.16"/><line class="cls-1" x1="215.55" y1="87.16" x2="215.55" y2="87.16"/><line class="cls-1" x1="215.55" y1="87.16" x2="215.55" y2="87.16"/><line class="cls-1" x1="215.55" y1="87.16" x2="215.55" y2="87.16"/><line class="cls-1" x1="215.55" y1="87.16" x2="215.55" y2="87.16"/><line class="cls-1" x1="215.55" y1="87.16" x2="215.55" y2="87.16"/><line class="cls-1" x1="215.55" y1="87.16" x2="215.55" y2="87.16"/><line class="cls-1" x1="264.58" y1="172.07" x2="215.55" y2="87.16"/><line class="cls-1" x1="215.55" y1="87.16" x2="215.55" y2="87.16"/><line class="cls-1" x1="166.58" y1="2.33" x2="215.55" y2="87.16"/><line class="cls-1" x1="215.55" y1="87.16" x2="215.55" y2="87.16"/><line class="cls-1" x1="215.55" y1="87.16" x2="215.55" y2="87.16"/><line class="cls-1" x1="215.55" y1="87.16" x2="215.55" y2="87.16"/><line class="cls-1" x1="215.55" y1="87.16" x2="215.55" y2="87.16"/><line class="cls-1" x1="215.55" y1="87.16" x2="215.55" y2="87.16"/><line class="cls-1" x1="215.55" y1="87.16" x2="215.55" y2="87.16"/><line class="cls-1" x1="215.55" y1="87.16" x2="215.55" y2="87.16"/><line class="cls-1" x1="215.55" y1="87.16" x2="215.55" y2="87.16"/><line class="cls-1" x1="274.31" y1="171.07" x2="215.55" y2="87.16"/><line class="cls-1" x1="156.86" y1="3.34" x2="215.55" y2="87.16"/><line class="cls-1" x1="215.55" y1="87.16" x2="215.55" y2="87.16"/><line class="cls-1" x1="215.55" y1="87.16" x2="215.55" y2="87.16"/><line class="cls-1" x1="215.55" y1="87.16" x2="215.55" y2="87.16"/><line class="cls-1" x1="215.55" y1="87.16" x2="215.55" y2="87.16"/><line class="cls-1" x1="215.55" y1="87.16" x2="215.55" y2="87.16"/><line class="cls-1" x1="215.55" y1="87.16" x2="215.55" y2="87.16"/><line class="cls-1" x1="215.55" y1="87.16" x2="215.55" y2="87.16"/><line class="cls-1" x1="215.55" y1="87.16" x2="215.55" y2="87.16"/><line class="cls-1" x1="146.33" y1="4.67" x2="215.55" y2="87.16"/><line class="cls-1" x1="215.55" y1="87.16" x2="215.55" y2="87.16"/><line class="cls-1" x1="215.55" y1="87.16" x2="215.55" y2="87.16"/><line class="cls-1" x1="215.55" y1="87.16" x2="215.55" y2="87.16"/><line class="cls-1" x1="215.55" y1="87.16" x2="215.55" y2="87.16"/><line class="cls-1" x1="215.55" y1="87.16" x2="215.55" y2="87.16"/><line class="cls-1" x1="284.86" y1="169.76" x2="215.55" y2="87.16"/><line class="cls-1" x1="215.55" y1="87.16" x2="215.55" y2="87.16"/><line class="cls-1" x1="215.55" y1="87.16" x2="215.55" y2="87.16"/><line class="cls-1" x1="215.55" y1="87.16" x2="215.55" y2="87.16"/><line class="cls-1" x1="215.55" y1="87.16" x2="215.55" y2="87.16"/><line class="cls-1" x1="215.55" y1="87.16" x2="215.55" y2="87.16"/><line class="cls-1" x1="215.55" y1="87.16" x2="215.55" y2="87.16"/><line class="cls-1" x1="215.55" y1="87.16" x2="215.55" y2="87.16"/><line class="cls-1" x1="215.55" y1="87.16" x2="215.55" y2="87.16"/><line class="cls-1" x1="296.43" y1="168.04" x2="215.55" y2="87.16"/><line class="cls-1" x1="215.55" y1="87.16" x2="215.55" y2="87.16"/><line class="cls-1" x1="215.55" y1="87.16" x2="215.55" y2="87.16"/><line class="cls-1" x1="215.55" y1="87.16" x2="215.55" y2="87.16"/><line class="cls-1" x1="215.55" y1="87.16" x2="215.55" y2="87.16"/><line class="cls-1" x1="134.8" y1="6.41" x2="215.55" y2="87.16"/><line class="cls-1" x1="215.55" y1="87.16" x2="215.55" y2="87.16"/><line class="cls-1" x1="122.04" y1="8.69" x2="215.55" y2="87.16"/><line class="cls-1" x1="215.55" y1="87.16" x2="215.55" y2="87.16"/><line class="cls-1" x1="309.24" y1="165.77" x2="215.55" y2="87.16"/><line class="cls-1" x1="215.55" y1="87.16" x2="215.55" y2="87.16"/><line class="cls-1" x1="215.55" y1="87.16" x2="215.55" y2="87.16"/><line class="cls-1" x1="215.55" y1="87.16" x2="215.55" y2="87.16"/><line class="cls-1" x1="215.55" y1="87.16" x2="215.55" y2="87.16"/><line class="cls-1" x1="215.55" y1="87.16" x2="215.55" y2="87.16"/><line class="cls-1" x1="215.55" y1="87.16" x2="215.55" y2="87.16"/><line class="cls-1" x1="215.55" y1="87.16" x2="215.55" y2="87.16"/><line class="cls-1" x1="215.55" y1="87.16" x2="215.55" y2="87.16"/><line class="cls-1" x1="215.55" y1="87.16" x2="215.55" y2="87.16"/><line class="cls-1" x1="215.55" y1="87.16" x2="215.55" y2="87.16"/><line class="cls-1" x1="215.55" y1="87.16" x2="215.55" y2="87.16"/><line class="cls-1" x1="107.83" y1="11.73" x2="215.55" y2="87.16"/><line class="cls-1" x1="215.55" y1="87.16" x2="215.55" y2="87.16"/><line class="cls-1" x1="215.55" y1="87.16" x2="215.55" y2="87.16"/><line class="cls-1" x1="215.55" y1="87.16" x2="215.55" y2="87.16"/><line class="cls-1" x1="215.55" y1="87.16" x2="215.55" y2="87.16"/><line class="cls-1" x1="215.55" y1="87.16" x2="215.55" y2="87.16"/><line class="cls-1" x1="215.55" y1="87.16" x2="215.55" y2="87.16"/><line class="cls-1" x1="215.55" y1="87.16" x2="215.55" y2="87.16"/><line class="cls-1" x1="323.5" y1="162.74" x2="215.55" y2="87.16"/><line class="cls-1" x1="215.55" y1="87.16" x2="215.55" y2="87.16"/><line class="cls-1" x1="215.55" y1="87.16" x2="215.55" y2="87.16"/><line class="cls-1" x1="215.55" y1="87.16" x2="215.55" y2="87.16"/><line class="cls-1" x1="215.55" y1="87.16" x2="215.55" y2="87.16"/><line class="cls-1" x1="215.55" y1="87.16" x2="215.55" y2="87.16"/><line class="cls-1" x1="215.55" y1="87.16" x2="215.55" y2="87.16"/><line class="cls-1" x1="339.4" y1="158.66" x2="215.55" y2="87.16"/><line class="cls-1" x1="215.55" y1="87.16" x2="215.55" y2="87.16"/><line class="cls-1" x1="91.99" y1="15.82" x2="215.55" y2="87.16"/><line class="cls-1" x1="215.55" y1="87.16" x2="215.55" y2="87.16"/><line class="cls-1" x1="215.55" y1="87.16" x2="215.55" y2="87.16"/><line class="cls-1" x1="215.55" y1="87.16" x2="215.55" y2="87.16"/><line class="cls-1" x1="215.55" y1="87.16" x2="215.55" y2="87.16"/><line class="cls-1" x1="215.55" y1="87.16" x2="215.55" y2="87.16"/><line class="cls-1" x1="215.55" y1="87.16" x2="215.55" y2="87.16"/><line class="cls-1" x1="215.55" y1="87.16" x2="215.55" y2="87.16"/><line class="cls-1" x1="215.55" y1="87.16" x2="215.55" y2="87.16"/><line class="cls-1" x1="215.55" y1="87.16" x2="215.55" y2="87.16"/><line class="cls-1" x1="215.55" y1="87.16" x2="215.55" y2="87.16"/><line class="cls-1" x1="215.55" y1="87.16" x2="215.55" y2="87.16"/><line class="cls-1" x1="215.55" y1="87.16" x2="215.55" y2="87.16"/><line class="cls-1" x1="215.55" y1="87.16" x2="215.55" y2="87.16"/><line class="cls-1" x1="215.55" y1="87.16" x2="215.55" y2="87.16"/><line class="cls-1" x1="74.43" y1="21.35" x2="215.55" y2="87.16"/><line class="cls-1" x1="215.55" y1="87.16" x2="215.55" y2="87.16"/><line class="cls-1" x1="357.04" y1="153.14" x2="215.55" y2="87.16"/><line class="cls-1" x1="215.55" y1="87.16" x2="215.55" y2="87.16"/><line class="cls-1" x1="215.55" y1="87.16" x2="215.55" y2="87.16"/><line class="cls-1" x1="215.55" y1="87.16" x2="215.55" y2="87.16"/><line class="cls-1" x1="215.55" y1="87.16" x2="215.55" y2="87.16"/><line class="cls-1" x1="215.55" y1="87.16" x2="215.55" y2="87.16"/><line class="cls-1" x1="215.55" y1="87.16" x2="215.55" y2="87.16"/><line class="cls-1" x1="215.55" y1="87.16" x2="215.55" y2="87.16"/><line class="cls-1" x1="215.55" y1="87.16" x2="215.55" y2="87.16"/><line class="cls-1" x1="215.55" y1="87.16" x2="215.55" y2="87.16"/><line class="cls-1" x1="215.55" y1="87.16" x2="215.55" y2="87.16"/><line class="cls-1" x1="215.55" y1="87.16" x2="215.55" y2="87.16"/><line class="cls-1" x1="215.55" y1="87.16" x2="215.55" y2="87.16"/><line class="cls-1" x1="215.55" y1="87.16" x2="215.55" y2="87.16"/><line class="cls-1" x1="215.55" y1="87.16" x2="215.55" y2="87.16"/><line class="cls-1" x1="215.55" y1="87.16" x2="215.55" y2="87.16"/><line class="cls-1" x1="215.55" y1="87.16" x2="215.55" y2="87.16"/><line class="cls-1" x1="215.55" y1="87.16" x2="215.55" y2="87.16"/><line class="cls-1" x1="215.55" y1="87.16" x2="215.55" y2="87.16"/><line class="cls-1" x1="215.55" y1="87.16" x2="215.55" y2="87.16"/><line class="cls-1" x1="215.55" y1="87.16" x2="215.55" y2="87.16"/><line class="cls-1" x1="215.55" y1="87.16" x2="215.55" y2="87.16"/><line class="cls-1" x1="215.55" y1="87.16" x2="215.55" y2="87.16"/><line class="cls-1" x1="215.55" y1="87.16" x2="215.55" y2="87.16"/><line class="cls-1" x1="215.55" y1="87.16" x2="215.55" y2="87.16"/><line class="cls-1" x1="215.55" y1="87.16" x2="215.55" y2="87.16"/><line class="cls-1" x1="215.55" y1="87.16" x2="215.55" y2="87.16"/><line class="cls-1" x1="215.55" y1="87.16" x2="215.55" y2="87.16"/><line class="cls-1" x1="215.55" y1="87.16" x2="215.55" y2="87.16"/><line class="cls-1" x1="376.15" y1="145.61" x2="215.55" y2="87.16"/><line class="cls-1" x1="215.55" y1="87.16" x2="55.44" y2="28.88"/><line class="cls-1" x1="215.55" y1="87.16" x2="215.55" y2="87.16"/><line class="cls-1" x1="215.55" y1="87.16" x2="215.55" y2="87.16"/><line class="cls-1" x1="215.55" y1="87.16" x2="215.55" y2="87.16"/><line class="cls-1" x1="215.55" y1="87.16" x2="215.55" y2="87.16"/><line class="cls-1" x1="215.55" y1="87.16" x2="215.55" y2="87.16"/><line class="cls-1" x1="215.55" y1="87.16" x2="215.55" y2="87.16"/><line class="cls-1" x1="215.55" y1="87.16" x2="215.55" y2="87.16"/><line class="cls-1" x1="215.55" y1="87.16" x2="215.55" y2="87.16"/><line class="cls-1" x1="215.55" y1="87.16" x2="215.55" y2="87.16"/><line class="cls-1" x1="215.55" y1="87.16" x2="215.55" y2="87.16"/><line class="cls-1" x1="215.55" y1="87.16" x2="215.55" y2="87.16"/><line class="cls-1" x1="215.55" y1="87.16" x2="215.55" y2="87.16"/><line class="cls-1" x1="215.55" y1="87.16" x2="215.55" y2="87.16"/><line class="cls-1" x1="215.55" y1="87.16" x2="215.55" y2="87.16"/><line class="cls-1" x1="215.55" y1="87.16" x2="215.55" y2="87.16"/><line class="cls-1" x1="215.55" y1="87.16" x2="215.55" y2="87.16"/><line class="cls-1" x1="215.55" y1="87.16" x2="215.55" y2="87.16"/><line class="cls-1" x1="215.55" y1="87.16" x2="215.55" y2="87.16"/><line class="cls-1" x1="215.55" y1="87.16" x2="215.55" y2="87.16"/><line class="cls-1" x1="215.55" y1="87.16" x2="215.55" y2="87.16"/><line class="cls-1" x1="215.55" y1="87.16" x2="215.55" y2="87.16"/><line class="cls-1" x1="215.55" y1="87.16" x2="215.55" y2="87.16"/><line class="cls-1" x1="215.55" y1="87.16" x2="215.55" y2="87.16"/><line class="cls-1" x1="215.55" y1="87.16" x2="215.55" y2="87.16"/><line class="cls-1" x1="215.55" y1="87.16" x2="215.55" y2="87.16"/><line class="cls-1" x1="215.55" y1="87.16" x2="215.55" y2="87.16"/><line class="cls-1" x1="215.55" y1="87.16" x2="215.55" y2="87.16"/><line class="cls-1" x1="395.77" y1="135.45" x2="215.55" y2="87.16"/><line class="cls-1" x1="215.55" y1="87.16" x2="215.55" y2="87.16"/><line class="cls-1" x1="35.93" y1="39.03" x2="215.55" y2="87.16"/><line class="cls-1" x1="215.55" y1="87.16" x2="215.55" y2="87.16"/><line class="cls-1" x1="215.55" y1="87.16" x2="215.55" y2="87.16"/><line class="cls-1" x1="215.55" y1="87.16" x2="215.55" y2="87.16"/><line class="cls-1" x1="413.86" y1="122.13" x2="215.55" y2="87.16"/><line class="cls-1" x1="215.55" y1="87.16" x2="215.55" y2="87.16"/><line class="cls-1" x1="215.55" y1="87.16" x2="215.55" y2="87.16"/><line class="cls-1" x1="215.55" y1="87.16" x2="215.55" y2="87.16"/><line class="cls-1" x1="215.55" y1="87.16" x2="215.55" y2="87.16"/><line class="cls-1" x1="215.55" y1="87.16" x2="215.55" y2="87.16"/><line class="cls-1" x1="215.55" y1="87.16" x2="215.55" y2="87.16"/><line class="cls-1" x1="215.55" y1="87.16" x2="215.55" y2="87.16"/><line class="cls-1" x1="215.55" y1="87.16" x2="215.55" y2="87.16"/><line class="cls-1" x1="215.55" y1="87.16" x2="215.55" y2="87.16"/><line class="cls-1" x1="215.55" y1="87.16" x2="215.55" y2="87.16"/><line class="cls-1" x1="215.55" y1="87.16" x2="215.55" y2="87.16"/><line class="cls-1" x1="17.98" y1="52.32" x2="215.55" y2="87.16"/><line class="cls-1" x1="215.55" y1="87.16" x2="215.55" y2="87.16"/><line class="cls-1" x1="215.55" y1="87.16" x2="215.55" y2="87.16"/><line class="cls-1" x1="215.55" y1="87.16" x2="215.55" y2="87.16"/><line class="cls-1" x1="215.55" y1="87.16" x2="215.55" y2="87.16"/><line class="cls-1" x1="215.55" y1="87.16" x2="215.55" y2="87.16"/><line class="cls-1" x1="215.55" y1="87.16" x2="215.55" y2="87.16"/><line class="cls-1" x1="215.55" y1="87.16" x2="215.55" y2="87.16"/><line class="cls-1" x1="215.55" y1="87.16" x2="215.55" y2="87.16"/><line class="cls-1" x1="215.55" y1="87.16" x2="215.55" y2="87.16"/><line class="cls-1" x1="215.55" y1="87.16" x2="215.55" y2="87.16"/><line class="cls-1" x1="215.55" y1="87.16" x2="215.55" y2="87.16"/><line class="cls-1" x1="215.55" y1="87.16" x2="215.55" y2="87.16"/><line class="cls-1" x1="215.55" y1="87.16" x2="215.55" y2="87.16"/><line class="cls-1" x1="215.55" y1="87.16" x2="215.55" y2="87.16"/><line class="cls-1" x1="215.55" y1="87.16" x2="215.55" y2="87.16"/><line class="cls-1" x1="215.55" y1="87.16" x2="215.55" y2="87.16"/><line class="cls-1" x1="215.55" y1="87.16" x2="215.55" y2="87.16"/><line class="cls-1" x1="215.55" y1="87.16" x2="215.55" y2="87.16"/><line class="cls-1" x1="215.55" y1="87.16" x2="215.55" y2="87.16"/><line class="cls-1" x1="215.55" y1="87.16" x2="215.55" y2="87.16"/><line class="cls-1" x1="215.55" y1="87.16" x2="215.55" y2="87.16"/><line class="cls-1" x1="215.55" y1="87.16" x2="215.55" y2="87.16"/><line class="cls-1" x1="215.55" y1="87.16" x2="215.55" y2="87.16"/><line class="cls-1" x1="215.55" y1="87.16" x2="215.55" y2="87.16"/><line class="cls-1" x1="215.55" y1="87.16" x2="215.55" y2="87.16"/><line class="cls-1" x1="427.07" y1="105.67" x2="215.55" y2="87.16"/><line class="cls-1" x1="215.55" y1="87.16" x2="4.86" y2="68.73"/><line class="cls-1" x1="215.55" y1="87.16" x2="215.55" y2="87.16"/><line class="cls-1" x1="215.55" y1="87.16" x2="215.55" y2="87.16"/></g></g></g></g></svg>