<svg xmlns="http://www.w3.org/2000/svg" viewBox="0 0 252.43 252.43"><defs><style>.cls-1{fill:#fff;stroke:#000;}.cls-1,.cls-2,.cls-3{stroke-miterlimit:10;}.cls-2{fill:#6ca69e;}.cls-2,.cls-3{stroke:#6ca69e;}.cls-3{fill:none;}</style></defs><g id="Layer_2" data-name="Layer 2"><g id="Layer_1-2" data-name="Layer 1"><g id="Layer_2-2" data-name="Layer 2"><g id="Layer_1-2-2" data-name="Layer 1-2"><rect class="cls-1" x="12.5" y="12.5" width="239.43" height="239.43"/><rect class="cls-1" x="9.5" y="9.5" width="239.43" height="239.43"/><rect class="cls-1" x="6.5" y="6.5" width="239.43" height="239.43"/><rect class="cls-1" x="3.5" y="3.5" width="239.43" height="239.43"/><rect class="cls-1" x="0.5" y="0.5" width="239.43" height="239.43"/></g></g><g id="Layer_2-3" data-name="Layer 2"><g id="Layer_1-2-3" data-name="Layer 1-2"><path class="cls-2" d="M30.85,92.81H41.7c7.91,0,13.14,5.22,13.14,13.29s-5.07,14-13.42,14H30.85Zm5.9,22.52h4.43c5.23,0,7.56-3.92,7.56-9.23,0-4.47-2.18-8.54-7.52-8.54H36.75Z"/><path class="cls-2" d="M64.61,113.78l-2.1,6.3H56.69L66,92.81h7.41l9.7,27.27H76.84l-2.26-6.3ZM73.32,109c-1.94-5.77-3.18-9.45-3.84-11.9h0c-.67,2.69-2,7-3.56,11.9Z"/><path class="cls-2" d="M86.54,120.08V92.81h7.32c3.4,6.08,9.7,17.17,11,20.14h.08c-.32-2.85-.32-7.6-.32-12.07V92.81h5.34v27.27H103c-2.93-5.35-9.89-18-11.28-21.17h-.08c.2,2.38.27,8,.27,12.86v8.32Z"/><path class="cls-2" d="M135.22,108.32H122.16v6.93h13.61v4.83H116.42V92.81h19.35v4.83H122.16v5.82h13.06Z"/><path class="cls-2" d="M145.23,112.08c.64,2.73,2.58,4,5.74,4s4.51-1.28,4.51-3.27c0-2.25-1.3-3.2-6-4.27-7.44-1.74-9.26-4.47-9.26-8.15,0-4.77,3.56-8,10-8,7.23,0,10.14,3.89,10.53,7.89h-5.94c-.32-1.7-1.23-3.52-4.77-3.52-2.41,0-3.84,1-3.84,2.92s1.15,2.69,5.59,3.68c7.91,1.9,9.65,4.83,9.65,8.71,0,5-3.76,8.39-11,8.39-6.93,0-10.61-3.4-11.24-8.39Z"/><path class="cls-2" d="M185.6,111.33c0,6.29-2.06,9.14-8,9.14a16.76,16.76,0,0,1-3.68-.35v-4.67a24.12,24.12,0,0,0,2.69.15c2.69,0,3.13-1.82,3.13-3.88V92.81h5.9Z"/><path class="cls-2" d="M210.7,108.32H197.63v6.93h13.59v4.83H191.88V92.81h19.36v4.83H197.63v5.82H210.7Z"/><path class="cls-2" d="M30.85,153.28V126h7.32c3.4,6.09,9.7,17.18,11,20.14h.08c-.32-2.84-.32-7.59-.32-12.06V126h5.34v27.27H47.32c-2.93-5.34-9.9-18-11.29-21.18H36c.19,2.38.27,8,.27,12.86v8.31Z"/><path class="cls-2" d="M86.74,139.55c0,7.59-4.56,14.13-13.42,14.13-8.59,0-13.06-6.22-13.06-14.05s4.95-14,13.41-14C81.67,125.61,86.74,131.2,86.74,139.55Zm-20.39-.05c0,5.35,2.34,9.38,7.17,9.38,5.26,0,7.12-4.39,7.12-9.25,0-5.19-2.14-9.23-7.2-9.23S66.35,134.21,66.35,139.5Z"/><path class="cls-2" d="M98.73,153.28,89.11,126h6.33l4,12.59a101.08,101.08,0,0,1,2.81,9.85h.08a96.75,96.75,0,0,1,2.93-9.77L109.57,126h6l-9.9,27.27Z"/><path class="cls-2" d="M130.15,126H141c7.92,0,13.14,5.23,13.14,13.3s-5.06,14-13.42,14H130.15Zm5.91,22.52h4.43c5.23,0,7.56-3.92,7.56-9.22,0-4.47-2.17-8.55-7.51-8.55h-4.48Z"/><path class="cls-2" d="M164.79,147l-2.1,6.29h-5.82L166.13,126h7.4l9.7,27.27H177L174.76,147Zm8.7-4.84c-1.94-5.78-3.17-9.46-3.84-11.91h0c-.67,2.69-2,7-3.56,11.91Z"/><path class="cls-2" d="M187.58,153.28V126h7.33c3.4,6.09,9.69,17.18,11,20.14H206c-.31-2.84-.31-7.59-.31-12.06V126H211v27.27h-6.93c-2.92-5.34-9.89-18-11.27-21.17h-.1c.2,2.39.26,8,.26,12.87v8.31Z"/><path class="cls-3" d="M28.65,92.81H39.5c7.91,0,13.13,5.22,13.13,13.29s-5.06,14-13.41,14H28.65Zm5.9,22.52H39c5.23,0,7.56-3.92,7.56-9.23,0-4.47-2.17-8.54-7.52-8.54H34.55Z"/><path class="cls-3" d="M62.41,113.78l-2.09,6.3H54.5l9.26-27.27h7.4l9.7,27.27H74.64l-2.25-6.3ZM71.12,109c-1.94-5.77-3.17-9.45-3.84-11.9h0c-.67,2.69-2,7-3.56,11.9Z"/><path class="cls-3" d="M84.34,120.08V92.81h7.32c3.41,6.08,9.7,17.17,11,20.14h.07c-.31-2.85-.31-7.6-.31-12.07V92.81h5.34v27.27h-6.92c-2.93-5.35-9.9-18-11.29-21.17h-.08c.2,2.38.27,8,.27,12.86v8.32Z"/><path class="cls-3" d="M133,108.32H120v6.93h14.41l-.71,4.83H114.22V92.81h19.36v4.83H120v5.82H133Z"/><path class="cls-3" d="M143,112.08c.63,2.73,2.57,4,5.73,4s4.52-1.28,4.52-3.27c0-2.25-1.31-3.2-6-4.27-7.44-1.74-9.26-4.47-9.26-8.15,0-4.74,3.57-8,10-8,7.24,0,10.13,3.88,10.53,7.88h-5.94c-.32-1.7-1.23-3.52-4.75-3.52-2.41,0-3.84,1-3.84,2.92s1.15,2.69,5.58,3.68c7.92,1.9,9.66,4.83,9.66,8.71,0,5-3.76,8.39-11,8.39-6.93,0-10.61-3.4-11.24-8.39Z"/><path class="cls-3" d="M183.42,111.33c0,6.29-2.06,9.14-8,9.14a16.76,16.76,0,0,1-3.68-.35v-4.67a24.39,24.39,0,0,0,2.69.15c2.69,0,3.13-1.82,3.13-3.88V92.81h5.9Z"/><path class="cls-3" d="M208.5,108.32H195.44v6.93h14.4l-.71,4.83H189.7V92.81h19.35v4.83H195.44v5.82H208.5Z"/><path class="cls-3" d="M28.38,153.28V126h7.33c3.4,6.09,9.69,17.18,11,20.14h.08c-.32-2.84-.32-7.59-.32-12.06V126h5.34v27.27H44.85c-2.93-5.34-9.9-18-11.28-21.18h-.08c.2,2.38.28,8,.28,12.86v8.31Z"/><path class="cls-3" d="M84.27,139.55c0,7.59-4.55,14.13-13.42,14.13-8.59,0-13.06-6.22-13.06-14.05s5-14,13.42-14C79.2,125.61,84.27,131.2,84.27,139.55Zm-20.37,0c0,5.34,2.33,9.38,7.16,9.38,5.26,0,7.12-4.4,7.12-9.26,0-5.19-2.13-9.22-7.2-9.22s-7.09,3.8-7.09,9.09Z"/><path class="cls-3" d="M96.26,153.28,86.64,126H93l4,12.59a101.08,101.08,0,0,1,2.81,9.85h.08c.56-2.57,1.63-5.9,2.93-9.77L107.1,126h6l-9.89,27.27Z"/><path class="cls-3" d="M127.69,126h10.85c7.91,0,13.13,5.23,13.13,13.3s-5.06,14-13.41,14H127.69Zm5.9,22.52H138c5.22,0,7.56-3.92,7.56-9.22,0-4.47-2.18-8.55-7.52-8.55h-4.47Z"/><path class="cls-3" d="M162.32,147l-2.1,6.29H154.4L163.66,126h7.41l9.7,27.27h-6.22L172.29,147Zm8.71-4.84c-1.94-5.78-3.18-9.46-3.84-11.91h0c-.68,2.69-2,7-3.57,11.91Z"/><path class="cls-3" d="M185.12,153.28V126h7.32c3.4,6.09,9.69,17.18,11,20.14h.08c-.32-2.84-.32-7.59-.32-12.06V126h5.35v27.27h-6.93c-2.93-5.34-9.89-18-11.28-21.18h-.08c.2,2.38.26,8,.26,12.86v8.31Z"/></g></g></g></g></svg>