<svg xmlns="http://www.w3.org/2000/svg" viewBox="0 0 214.24 214.24"><defs><style>.cls-1,.cls-2,.cls-3{fill:#25368c;}.cls-1,.cls-2{stroke:#1d1d1b;stroke-miterlimit:10;}.cls-1{stroke-width:2px;}.cls-2{stroke-width:0.75px;}</style></defs><g id="Layer_2" data-name="Layer 2"><g id="Layer_1-2" data-name="Layer 1"><circle class="cls-1" cx="107.08" cy="107.1" r="25.61"/><rect class="cls-2" x="104.35" y="0.38" width="5.27" height="213.49"/><rect class="cls-2" x="104.48" y="0.23" width="5.27" height="213.49" transform="translate(0.15 214.1) rotate(-90)"/><rect class="cls-2" x="104.35" y="0.41" width="5.27" height="213.49" transform="matrix(0.97, -0.26, 0.26, 0.97, -24.09, 31.34)"/><rect class="cls-2" x="104.45" y="0.23" width="5.27" height="213.49" transform="translate(31.46 238.1) rotate(-105)"/><rect class="cls-2" x="104.36" y="0.43" width="5.27" height="213.49" transform="translate(-39.26 67.86) rotate(-30)"/><rect class="cls-2" x="104.4" y="0.24" width="5.27" height="213.49" transform="translate(67.9 253.18) rotate(-120)"/><rect class="cls-2" x="104.39" y="0.32" width="5.27" height="213.49" transform="translate(-44.36 107.04) rotate(-45)"/><rect class="cls-2" x="104.38" y="0.13" width="5.27" height="213.49" transform="translate(107.12 258.12) rotate(-135)"/><rect class="cls-2" x="104.51" y="0.32" width="5.27" height="213.49" transform="translate(-39.15 146.33) rotate(-60)"/><rect class="cls-2" x="104.45" y="0.13" width="5.27" height="213.49" transform="translate(146.39 252.99) rotate(-150)"/><rect class="cls-2" x="104.56" y="0.32" width="5.27" height="213.49" transform="translate(-23.96 182.9) rotate(-75)"/><rect class="cls-2" x="104.46" y="0.15" width="5.27" height="213.49" transform="translate(182.87 237.87) rotate(-165)"/><circle class="cls-3" cx="107.08" cy="107.1" r="25.61"/></g></g></svg>